<svg width="47" height="47" viewBox="0 0 47 47" fill="none" xmlns="http://www.w3.org/2000/svg">
<rect x="0.5" y="0.5" width="46" height="46" rx="4.5" fill="#0F5043" stroke="#DDA382"/>
<path d="M37 24H31H42.5M42.5 24L37 17M42.5 24L37 30M42.5 24H26" stroke="#DDA382" stroke-width="3" stroke-linecap="round"/>
<path d="M24.0304 36.0386L24.0636 30.0387L23.9999 41.5386M23.9999 41.5386L17.0305 35.9998M23.9999 41.5386L30.0303 36.0719M23.9999 41.5386L24.0914 25.0388" stroke="#DDA382" stroke-width="3" stroke-linecap="round"/>
<path d="M24.0353 12.5449L24.0739 18.5448L23.9999 7.04503M23.9999 7.04503L31.0351 12.4999M23.9999 7.04503L18.0354 12.5835M23.9999 7.04503L24.106 23.5447" stroke="#DDA382" stroke-width="3" stroke-linecap="round"/>
<path d="M10.5 24H16.5H5M5 24L10.5 17M5 24L10.5 30M5 24H21.5" stroke="#DDA382" stroke-width="3" stroke-linecap="round"/>
</svg>
