<svg width="1920" height="131" viewBox="0 0 1920 131" fill="none" xmlns="http://www.w3.org/2000/svg">
<rect y="-4" width="1920" height="135" fill="#192D05"/>
<circle cx="1851.5" cy="63.5" r="53" fill="#D9D9D9" stroke="#553700" stroke-width="5"/>
<path d="M1822.24 61.44C1822.24 62.976 1821.96 64.38 1821.41 65.652C1820.88 66.924 1820.08 67.944 1819 68.712C1817.94 69.48 1816.63 69.864 1815.07 69.864H1812.3C1812.18 69.864 1812.1 69.9 1812.05 69.972C1812.02 70.02 1812.01 70.092 1812.01 70.188V77.676C1812.01 77.892 1811.89 78 1811.65 78H1809.06C1808.82 78 1808.7 77.892 1808.7 77.676V54.096C1808.7 53.88 1808.82 53.772 1809.06 53.772H1814.68C1817.34 53.772 1819.26 54.396 1820.44 55.644C1821.64 56.892 1822.24 58.824 1822.24 61.44ZM1812.01 67.092C1812.01 67.284 1812.1 67.38 1812.26 67.38H1814.71C1816.08 67.38 1817.14 66.864 1817.88 65.832C1818.65 64.776 1819.03 63.324 1819.03 61.476C1819.01 59.532 1818.62 58.164 1817.88 57.372C1817.16 56.556 1816.07 56.148 1814.6 56.148H1812.26C1812.17 56.148 1812.1 56.172 1812.05 56.22C1812.02 56.244 1812.01 56.328 1812.01 56.472V67.092ZM1831.14 60.828C1832.7 60.828 1834.02 61.044 1835.1 61.476C1835.24 61.548 1835.34 61.62 1835.39 61.692C1835.46 61.764 1835.47 61.86 1835.42 61.98L1834.99 63.636C1834.94 63.78 1834.88 63.864 1834.81 63.888C1834.76 63.912 1834.67 63.9 1834.52 63.852C1834.09 63.708 1833.62 63.612 1833.12 63.564C1832.61 63.492 1832.17 63.456 1831.79 63.456C1831.4 63.456 1831.03 63.492 1830.67 63.564C1830.31 63.612 1829.99 63.672 1829.7 63.744C1829.43 63.816 1829.24 63.888 1829.12 63.96C1829 64.032 1828.88 64.116 1828.76 64.212C1828.64 64.308 1828.58 64.524 1828.58 64.86V77.496C1828.58 77.712 1828.55 77.856 1828.47 77.928C1828.4 77.976 1828.29 78 1828.15 78H1825.7C1825.63 78 1825.56 77.976 1825.49 77.928C1825.41 77.88 1825.38 77.76 1825.38 77.568V62.952C1825.38 62.592 1825.43 62.352 1825.52 62.232C1825.62 62.112 1825.77 62.004 1825.99 61.908C1826.69 61.572 1827.51 61.308 1828.47 61.116C1829.46 60.924 1830.35 60.828 1831.14 60.828ZM1844.11 78.216C1842.12 78.216 1840.57 77.844 1839.46 77.1C1838.36 76.356 1837.59 75.324 1837.16 74.004C1836.75 72.66 1836.55 71.148 1836.55 69.468C1836.55 67.788 1836.78 66.3 1837.23 65.004C1837.71 63.684 1838.5 62.652 1839.61 61.908C1840.71 61.164 1842.21 60.792 1844.11 60.792C1846 60.792 1847.5 61.164 1848.61 61.908C1849.71 62.652 1850.49 63.684 1850.95 65.004C1851.43 66.3 1851.67 67.788 1851.67 69.468C1851.67 71.148 1851.45 72.648 1851.02 73.968C1850.61 75.288 1849.86 76.332 1848.75 77.1C1847.67 77.844 1846.12 78.216 1844.11 78.216ZM1844.07 75.732C1845.68 75.732 1846.8 75.192 1847.42 74.112C1848.07 73.008 1848.39 71.472 1848.39 69.504C1848.39 67.56 1848.04 66.06 1847.35 65.004C1846.65 63.948 1845.56 63.42 1844.07 63.42C1842.61 63.42 1841.52 63.948 1840.8 65.004C1840.1 66.06 1839.75 67.56 1839.75 69.504C1839.75 71.496 1840.08 73.032 1840.72 74.112C1841.37 75.192 1842.49 75.732 1844.07 75.732ZM1856.6 77.64C1856.53 76.824 1856.46 75.852 1856.39 74.724C1856.32 73.596 1856.26 72.396 1856.21 71.124C1856.18 69.852 1856.16 68.58 1856.14 67.308C1856.11 66.036 1856.1 64.86 1856.1 63.78C1856.1 63.54 1856 63.42 1855.81 63.42H1853.87C1853.75 63.42 1853.66 63.396 1853.62 63.348C1853.57 63.3 1853.54 63.216 1853.54 63.096V61.368C1853.54 61.224 1853.57 61.128 1853.62 61.08C1853.66 61.032 1853.76 61.008 1853.9 61.008H1855.85C1855.97 61.008 1856.04 60.996 1856.06 60.972C1856.09 60.924 1856.1 60.816 1856.1 60.648C1856.1 59.424 1856.16 58.344 1856.28 57.408C1856.4 56.448 1856.72 55.584 1857.25 54.816C1857.83 54 1858.62 53.388 1859.63 52.98C1860.64 52.572 1861.87 52.368 1863.34 52.368C1864.06 52.368 1864.72 52.476 1865.32 52.692C1865.92 52.884 1866.34 53.04 1866.58 53.16C1866.79 53.304 1866.92 53.412 1866.97 53.484C1867.02 53.556 1867.03 53.664 1867.01 53.808L1866.54 55.212C1866.49 55.38 1866.43 55.476 1866.36 55.5C1866.31 55.524 1866.23 55.5 1866.11 55.428C1865.82 55.26 1865.44 55.104 1864.96 54.96C1864.48 54.816 1863.91 54.756 1863.26 54.78C1862.3 54.78 1861.5 54.984 1860.85 55.392C1860.2 55.8 1859.8 56.532 1859.63 57.588C1859.46 58.068 1859.35 58.572 1859.3 59.1C1859.28 59.604 1859.28 60.132 1859.3 60.684C1859.3 60.804 1859.32 60.888 1859.34 60.936C1859.39 60.984 1859.47 61.008 1859.59 61.008H1864.67C1864.81 61.008 1864.91 61.032 1864.96 61.08C1865 61.104 1865.03 61.212 1865.03 61.404V63.06C1865.03 63.204 1864.99 63.3 1864.92 63.348C1864.87 63.396 1864.78 63.42 1864.63 63.42H1859.63C1859.51 63.42 1859.41 63.456 1859.34 63.528C1859.29 63.576 1859.27 63.66 1859.27 63.78C1859.27 64.98 1859.28 66.264 1859.3 67.632C1859.35 69 1859.4 70.344 1859.45 71.664C1859.5 72.96 1859.54 74.136 1859.59 75.192C1859.64 76.224 1859.68 77.04 1859.7 77.64C1859.72 77.808 1859.72 77.916 1859.7 77.964C1859.68 78.012 1859.6 78.036 1859.48 78.036H1856.93C1856.86 78.036 1856.78 78.012 1856.71 77.964C1856.66 77.892 1856.63 77.784 1856.6 77.64ZM1871 56.328C1871 56.856 1870.9 57.264 1870.68 57.552C1870.46 57.816 1870 57.948 1869.28 57.948C1868.58 57.948 1868.1 57.816 1867.84 57.552C1867.6 57.264 1867.48 56.856 1867.48 56.328C1867.48 55.848 1867.6 55.476 1867.84 55.212C1868.1 54.924 1868.58 54.78 1869.28 54.78C1870.04 54.78 1870.52 54.924 1870.72 55.212C1870.91 55.476 1871 55.848 1871 56.328ZM1870.86 77.676C1870.86 77.892 1870.76 78 1870.57 78H1868.02C1867.8 78 1867.69 77.892 1867.69 77.676V61.332C1867.69 61.116 1867.8 61.008 1868.02 61.008H1870.57C1870.76 61.008 1870.86 61.116 1870.86 61.332V77.676ZM1875.03 77.676V52.836C1875.03 52.62 1875.15 52.512 1875.39 52.512H1877.87C1878.11 52.512 1878.23 52.62 1878.23 52.836V77.676C1878.23 77.892 1878.11 78 1877.87 78H1875.39C1875.15 78 1875.03 77.892 1875.03 77.676ZM1881.79 69.468C1881.79 68.34 1881.9 67.26 1882.12 66.228C1882.36 65.196 1882.74 64.272 1883.27 63.456C1883.82 62.616 1884.57 61.968 1885.5 61.512C1886.44 61.032 1887.64 60.792 1889.1 60.792C1890.61 60.792 1891.81 61.008 1892.7 61.44C1893.61 61.872 1894.3 62.448 1894.75 63.168C1895.23 63.888 1895.55 64.68 1895.69 65.544C1895.83 66.408 1895.91 67.272 1895.91 68.136C1895.91 69.072 1895.81 69.672 1895.62 69.936C1895.43 70.176 1895.14 70.296 1894.75 70.296H1885.36C1885.26 70.296 1885.18 70.32 1885.11 70.368C1885.03 70.416 1885 70.548 1885 70.764C1885.02 71.748 1885.2 72.624 1885.54 73.392C1885.9 74.16 1886.43 74.772 1887.12 75.228C1887.84 75.66 1888.73 75.876 1889.79 75.876C1890.6 75.876 1891.42 75.768 1892.23 75.552C1893.05 75.312 1893.7 75.06 1894.18 74.796C1894.42 74.676 1894.6 74.604 1894.72 74.58C1894.86 74.556 1894.99 74.676 1895.11 74.94L1895.69 76.02C1895.79 76.188 1895.81 76.32 1895.76 76.416C1895.71 76.488 1895.59 76.584 1895.4 76.704C1894.61 77.208 1893.65 77.592 1892.52 77.856C1891.42 78.096 1890.29 78.216 1889.14 78.216C1887.63 78.216 1886.39 78 1885.43 77.568C1884.49 77.112 1883.75 76.488 1883.2 75.696C1882.67 74.88 1882.3 73.944 1882.08 72.888C1881.89 71.832 1881.79 70.692 1881.79 69.468ZM1892.67 67.632C1892.67 66.816 1892.56 66.084 1892.34 65.436C1892.15 64.788 1891.79 64.272 1891.26 63.888C1890.76 63.48 1890.01 63.276 1889.03 63.276C1888.31 63.276 1887.7 63.42 1887.19 63.708C1886.69 63.972 1886.28 64.32 1885.97 64.752C1885.68 65.184 1885.47 65.664 1885.32 66.192C1885.18 66.696 1885.08 67.188 1885.03 67.668C1885.01 67.956 1885.01 68.148 1885.03 68.244C1885.08 68.316 1885.2 68.352 1885.39 68.352H1892.13C1892.34 68.352 1892.49 68.316 1892.56 68.244C1892.65 68.172 1892.69 67.968 1892.67 67.632Z" fill="black"/>
<rect x="575.5" y="41.5" width="862" height="49" rx="22.5" fill="#D9D9D9" stroke="#AA8239" stroke-width="5"/>
<path d="M1325.48 72.652C1325.5 72.484 1325.56 72.412 1325.66 72.436C1325.78 72.46 1325.9 72.508 1326.02 72.58C1326.4 72.796 1326.88 72.988 1327.46 73.156C1328.03 73.324 1328.61 73.456 1329.18 73.552C1329.78 73.648 1330.3 73.696 1330.73 73.696C1331.36 73.696 1331.93 73.612 1332.46 73.444C1332.99 73.252 1333.42 72.952 1333.76 72.544C1334.09 72.136 1334.26 71.62 1334.26 70.996C1334.26 70.228 1333.96 69.676 1333.36 69.34C1332.76 68.98 1331.76 68.704 1330.37 68.512C1329.48 68.368 1328.64 68.14 1327.85 67.828C1327.08 67.516 1326.46 67.048 1325.98 66.424C1325.5 65.8 1325.26 64.972 1325.26 63.94C1325.26 62.812 1325.55 61.876 1326.12 61.132C1326.72 60.364 1327.49 59.788 1328.43 59.404C1329.39 59.02 1330.41 58.828 1331.49 58.828C1332.35 58.828 1333.29 58.948 1334.3 59.188C1335.33 59.428 1336.14 59.752 1336.74 60.16C1336.89 60.256 1336.96 60.34 1336.96 60.412C1336.98 60.46 1336.97 60.544 1336.92 60.664L1336.35 62.356C1336.28 62.596 1336.11 62.644 1335.84 62.5C1335.36 62.188 1334.72 61.912 1333.9 61.672C1333.08 61.408 1332.28 61.276 1331.49 61.276C1330.58 61.276 1329.82 61.504 1329.22 61.96C1328.64 62.416 1328.36 62.98 1328.36 63.652C1328.36 64.396 1328.66 64.924 1329.26 65.236C1329.88 65.548 1330.76 65.788 1331.88 65.956C1332.63 66.076 1333.31 66.232 1333.94 66.424C1334.58 66.592 1335.16 66.844 1335.66 67.18C1336.17 67.516 1336.55 67.96 1336.82 68.512C1337.1 69.064 1337.25 69.784 1337.25 70.672C1337.25 71.728 1337.04 72.604 1336.64 73.3C1336.25 73.996 1335.74 74.56 1335.09 74.992C1334.44 75.424 1333.72 75.736 1332.93 75.928C1332.16 76.096 1331.39 76.18 1330.62 76.18C1330.24 76.18 1329.71 76.132 1329.04 76.036C1328.39 75.94 1327.73 75.796 1327.06 75.604C1326.39 75.388 1325.82 75.136 1325.37 74.848C1325.27 74.776 1325.2 74.716 1325.15 74.668C1325.1 74.596 1325.09 74.512 1325.12 74.416L1325.48 72.652ZM1339.75 67.468C1339.75 66.34 1339.85 65.26 1340.07 64.228C1340.31 63.196 1340.69 62.272 1341.22 61.456C1341.77 60.616 1342.52 59.968 1343.45 59.512C1344.39 59.032 1345.59 58.792 1347.05 58.792C1348.57 58.792 1349.77 59.008 1350.65 59.44C1351.57 59.872 1352.25 60.448 1352.71 61.168C1353.19 61.888 1353.5 62.68 1353.64 63.544C1353.79 64.408 1353.86 65.272 1353.86 66.136C1353.86 67.072 1353.76 67.672 1353.57 67.936C1353.38 68.176 1353.09 68.296 1352.71 68.296H1343.31C1343.21 68.296 1343.13 68.32 1343.06 68.368C1342.99 68.416 1342.95 68.548 1342.95 68.764C1342.97 69.748 1343.15 70.624 1343.49 71.392C1343.85 72.16 1344.38 72.772 1345.07 73.228C1345.79 73.66 1346.68 73.876 1347.74 73.876C1348.55 73.876 1349.37 73.768 1350.19 73.552C1351 73.312 1351.65 73.06 1352.13 72.796C1352.37 72.676 1352.55 72.604 1352.67 72.58C1352.81 72.556 1352.95 72.676 1353.07 72.94L1353.64 74.02C1353.74 74.188 1353.76 74.32 1353.71 74.416C1353.67 74.488 1353.55 74.584 1353.35 74.704C1352.56 75.208 1351.6 75.592 1350.47 75.856C1349.37 76.096 1348.24 76.216 1347.09 76.216C1345.58 76.216 1344.34 76 1343.38 75.568C1342.45 75.112 1341.7 74.488 1341.15 73.696C1340.62 72.88 1340.25 71.944 1340.03 70.888C1339.84 69.832 1339.75 68.692 1339.75 67.468ZM1350.62 65.632C1350.62 64.816 1350.51 64.084 1350.29 63.436C1350.1 62.788 1349.74 62.272 1349.21 61.888C1348.71 61.48 1347.97 61.276 1346.98 61.276C1346.26 61.276 1345.65 61.42 1345.15 61.708C1344.64 61.972 1344.23 62.32 1343.92 62.752C1343.63 63.184 1343.42 63.664 1343.27 64.192C1343.13 64.696 1343.03 65.188 1342.99 65.668C1342.96 65.956 1342.96 66.148 1342.99 66.244C1343.03 66.316 1343.15 66.352 1343.35 66.352H1350.08C1350.29 66.352 1350.44 66.316 1350.51 66.244C1350.61 66.172 1350.64 65.968 1350.62 65.632ZM1363.39 76.288C1362.19 76.288 1361.08 76.156 1360.05 75.892C1359.04 75.604 1358.22 75.076 1357.6 74.308C1356.97 73.54 1356.66 72.424 1356.66 70.96C1356.66 69.736 1356.88 68.728 1357.31 67.936C1357.74 67.144 1358.31 66.544 1359 66.136C1359.7 65.704 1360.43 65.404 1361.2 65.236C1361.97 65.068 1362.69 64.984 1363.36 64.984C1364.01 64.984 1364.64 65.02 1365.27 65.092C1365.91 65.14 1366.44 65.2 1366.85 65.272C1367.16 65.344 1367.32 65.14 1367.32 64.66C1367.32 63.388 1366.98 62.488 1366.31 61.96C1365.66 61.432 1364.67 61.168 1363.32 61.168C1362.41 61.168 1361.53 61.324 1360.69 61.636C1359.88 61.924 1359.21 62.224 1358.68 62.536C1358.49 62.632 1358.35 62.668 1358.28 62.644C1358.21 62.62 1358.16 62.524 1358.14 62.356L1357.89 60.808C1357.86 60.592 1357.86 60.448 1357.89 60.376C1357.93 60.304 1358.03 60.22 1358.17 60.124C1358.75 59.74 1359.49 59.428 1360.41 59.188C1361.32 58.948 1362.31 58.828 1363.39 58.828C1364.95 58.828 1366.19 59.008 1367.1 59.368C1368.04 59.728 1368.73 60.22 1369.19 60.844C1369.67 61.444 1369.98 62.14 1370.13 62.932C1370.29 63.7 1370.39 64.516 1370.41 65.38C1370.41 66.532 1370.4 67.612 1370.38 68.62C1370.38 69.604 1370.35 70.576 1370.31 71.536C1370.28 72.496 1370.22 73.48 1370.13 74.488C1370.08 74.704 1369.99 74.884 1369.87 75.028C1369.78 75.148 1369.57 75.28 1369.26 75.424C1368.93 75.568 1368.49 75.7 1367.97 75.82C1367.46 75.916 1366.93 76 1366.38 76.072C1365.83 76.144 1365.29 76.192 1364.76 76.216C1364.23 76.264 1363.78 76.288 1363.39 76.288ZM1363.57 74.2C1363.79 74.2 1364.07 74.188 1364.4 74.164C1364.76 74.116 1365.12 74.056 1365.48 73.984C1365.87 73.888 1366.19 73.768 1366.45 73.624C1366.72 73.48 1366.87 73.3 1366.92 73.084C1366.99 72.412 1367.05 71.632 1367.1 70.744C1367.15 69.856 1367.16 69.028 1367.14 68.26C1367.14 67.852 1366.99 67.588 1366.71 67.468C1366.39 67.348 1365.93 67.264 1365.3 67.216C1364.7 67.144 1364.08 67.108 1363.43 67.108C1363.09 67.108 1362.72 67.156 1362.31 67.252C1361.91 67.348 1361.51 67.528 1361.13 67.792C1360.74 68.056 1360.43 68.452 1360.19 68.98C1359.95 69.484 1359.83 70.144 1359.83 70.96C1359.83 71.68 1359.99 72.28 1360.3 72.76C1360.61 73.24 1361.04 73.6 1361.59 73.84C1362.17 74.08 1362.83 74.2 1363.57 74.2ZM1379.79 58.828C1381.35 58.828 1382.67 59.044 1383.75 59.476C1383.9 59.548 1383.99 59.62 1384.04 59.692C1384.11 59.764 1384.13 59.86 1384.08 59.98L1383.65 61.636C1383.6 61.78 1383.54 61.864 1383.47 61.888C1383.42 61.912 1383.32 61.9 1383.18 61.852C1382.75 61.708 1382.28 61.612 1381.77 61.564C1381.27 61.492 1380.83 61.456 1380.44 61.456C1380.06 61.456 1379.69 61.492 1379.33 61.564C1378.97 61.612 1378.64 61.672 1378.35 61.744C1378.09 61.816 1377.9 61.888 1377.78 61.96C1377.66 62.032 1377.54 62.116 1377.42 62.212C1377.3 62.308 1377.24 62.524 1377.24 62.86V75.496C1377.24 75.712 1377.2 75.856 1377.13 75.928C1377.06 75.976 1376.95 76 1376.81 76H1374.36C1374.29 76 1374.21 75.976 1374.14 75.928C1374.07 75.88 1374.03 75.76 1374.03 75.568V60.952C1374.03 60.592 1374.08 60.352 1374.18 60.232C1374.27 60.112 1374.43 60.004 1374.65 59.908C1375.34 59.572 1376.17 59.308 1377.13 59.116C1378.11 58.924 1379 58.828 1379.79 58.828ZM1392.76 76.216C1391.27 76.216 1390.05 76 1389.09 75.568C1388.13 75.112 1387.37 74.488 1386.82 73.696C1386.29 72.904 1385.92 71.98 1385.7 70.924C1385.49 69.868 1385.38 68.74 1385.38 67.54C1385.38 66.412 1385.49 65.332 1385.7 64.3C1385.94 63.244 1386.33 62.308 1386.85 61.492C1387.41 60.652 1388.15 59.992 1389.09 59.512C1390.05 59.032 1391.26 58.792 1392.72 58.792C1393.73 58.792 1394.61 58.9 1395.35 59.116C1396.09 59.308 1396.74 59.62 1397.29 60.052C1397.44 60.196 1397.52 60.304 1397.55 60.376C1397.59 60.448 1397.62 60.556 1397.62 60.7V62.644C1397.62 62.812 1397.56 62.896 1397.44 62.896C1397.34 62.896 1397.25 62.86 1397.15 62.788C1396.62 62.284 1396 61.936 1395.28 61.744C1394.56 61.528 1393.83 61.42 1393.08 61.42C1392.24 61.42 1391.53 61.6 1390.96 61.96C1390.38 62.296 1389.91 62.764 1389.55 63.364C1389.22 63.964 1388.97 64.624 1388.8 65.344C1388.65 66.064 1388.58 66.808 1388.58 67.576C1388.58 68.824 1388.73 69.916 1389.01 70.852C1389.3 71.764 1389.77 72.472 1390.42 72.976C1391.07 73.48 1391.91 73.732 1392.94 73.732C1393.61 73.732 1394.23 73.66 1394.81 73.516C1395.41 73.348 1396 73.132 1396.57 72.868C1396.86 72.724 1397.08 72.784 1397.22 73.048L1397.87 74.452C1397.94 74.596 1397.95 74.716 1397.91 74.812C1397.88 74.884 1397.81 74.956 1397.69 75.028C1397.09 75.436 1396.35 75.736 1395.46 75.928C1394.59 76.12 1393.69 76.216 1392.76 76.216ZM1400.37 75.676C1400.37 71.548 1400.37 67.408 1400.37 63.256C1400.37 59.104 1400.37 54.964 1400.37 50.836C1400.37 50.62 1400.49 50.512 1400.73 50.512C1401.13 50.512 1401.55 50.512 1401.99 50.512C1402.42 50.512 1402.84 50.512 1403.25 50.512C1403.46 50.512 1403.57 50.62 1403.57 50.836C1403.57 52.18 1403.57 53.548 1403.57 54.94C1403.57 56.308 1403.57 57.676 1403.57 59.044C1403.57 59.212 1403.61 59.32 1403.68 59.368C1403.77 59.416 1403.88 59.416 1404 59.368C1404.43 59.248 1404.95 59.128 1405.55 59.008C1406.17 58.888 1406.79 58.828 1407.39 58.828C1408.35 58.828 1409.21 58.972 1409.98 59.26C1410.75 59.524 1411.39 59.992 1411.92 60.664C1412.45 61.312 1412.86 62.188 1413.15 63.292C1413.46 64.396 1413.63 65.764 1413.65 67.396C1413.67 68.356 1413.66 69.34 1413.61 70.348C1413.57 71.356 1413.49 72.328 1413.4 73.264C1413.33 74.176 1413.24 74.992 1413.15 75.712C1413.15 75.832 1413.1 75.916 1413 75.964C1412.93 75.988 1412.81 76 1412.64 76C1412.28 76 1411.91 76 1411.53 76C1411.17 76 1410.81 76 1410.45 76C1410.18 76 1410.03 75.976 1409.98 75.928C1409.95 75.856 1409.97 75.676 1410.01 75.388C1410.13 74.332 1410.22 73.204 1410.27 72.004C1410.34 70.78 1410.39 69.592 1410.41 68.44C1410.41 67.12 1410.33 66.016 1410.16 65.128C1410.01 64.216 1409.77 63.484 1409.44 62.932C1409.13 62.356 1408.74 61.936 1408.29 61.672C1407.83 61.408 1407.3 61.276 1406.7 61.276C1406.32 61.276 1405.9 61.324 1405.44 61.42C1404.99 61.492 1404.55 61.588 1404.15 61.708C1403.98 61.732 1403.83 61.804 1403.71 61.924C1403.62 62.044 1403.57 62.248 1403.57 62.536V75.676C1403.57 75.892 1403.46 76 1403.25 76H1400.73C1400.49 76 1400.37 75.892 1400.37 75.676Z" fill="#0F5043"/>
</svg>
